<svg xmlns="http://www.w3.org/2000/svg" width="799.118" height="671.145" viewBox="0 0 749.173 629.198">
  <path
    fill="#6bb9ea"
    fill-rule="evenodd"
    d="M83.687 105.844s12.857 15 20 16.429c7.143 1.428 5 0 14.286 15 9.285 15 7.857 3.571 13.571 20.714 5.714 17.143-17.857 34.286-6.428 40.714 11.428 6.429 14.285 12.143 6.428 21.429-7.857 9.286-8.49 25.309-2.934 28.34 5.556 3.03-18.688 7.07-19.193 4.04-.505-3.03 0-17.173-4.545-16.163-4.546 1.01.505-1.515-7.071-6.566-7.577-5.05-20.709-1.01-20.709 2.526 0 3.535-5.555 18.688-6.06 23.233-.506 4.546-9.092 12.122 3.03 24.244s7.071 10.102 4.04 17.173c-3.03 7.07-5.05 20.203-.504 22.223 4.545 2.02 7.07 11.617 9.09 13.132 2.021 1.515 10.608-1.01 17.174-3.03 6.566-2.02 16.162 1.515 8.586 7.576-7.576 6.06-15.152 13.637-15.152 13.637s-7.072-1.516-10.607 5.05c-3.536 6.566-18.688 9.597-28.79 7.577-10.101-2.02-25.253 5.05-26.768 10.606-1.516 5.556-10.102 18.183-14.648 19.193-4.545 1.01-24.243 12.627-13.132 15.152 11.112 2.526 8.082-7.576 18.183-4.545 10.102 3.03 30.305 3.03 55.558-8.587 25.254-11.616 35.86-17.677 41.417-19.192 5.556-1.516 11.111-8.587 6.06-13.638-5.05-5.05-8.586-20.708 0-26.263 8.587-5.556 3.031 2.02 26.77-17.173 23.738-19.193 31.314-29.8 38.89-37.88 7.577-8.082 10.607-14.648 17.173-16.163 6.566-1.515 17.713-2.36 24.856 4.784 7.143 7.143 6.429 1.428 24.286-2.857 17.857-4.286 16.429-10 35-6.429 18.571 3.571 51.429 0 64.286 2.143s36.428.714 36.428.714 2.857 8.572-12.143 12.143c-15 3.571-61.428 13.571-66.428 22.857s-26.429 23.572 0 42.143c26.428 18.571 39.286 14.286 52.857 17.857 13.571 3.572 48.571 2.857 55 8.572 6.429 5.714 20.714 7.142 25 12.857 4.286 5.714 33.571 9.285 46.429 6.428 12.857-2.857 14.285-11.428 25-10.714 10.714.714 29.285-10 37.857-12.857 8.571-2.857 49.285-30 77.143-40 27.857-10 33.571-21.429 41.428-15.714 7.857 5.714 7.143 17.857 2.143 21.428-5 3.572 1.429 16.429.714 26.429-.714 10 10 52.143 2.857 57.143-7.142 5-19.285 23.571-19.285 30 0 6.428-12.143 39.285-5 44.285 7.143 5 20 32.857 22.143 39.286 2.142 6.429 1.428 12.857.714 16.429-.714 3.571-1.429 11.428-.714 25 .714 13.571 13.571 42.142 17.857 50 4.285 7.857 9.285 22.857 19.285 2.142 10-20.714 10-30.714 19.286-32.142 9.286-1.429 8.572-.715 13.572-13.572s-7.143-25-8.572-33.571c-1.428-8.572-4.286-21.429-7.857-28.572-3.571-7.143-11.429-22.857-9.286-33.571 2.143-10.714 8.572-9.286 11.429-22.143 2.857-12.857 8.571-42.857 2.143-50.714-6.429-7.857-18.572-30-15-37.143 3.571-7.143 2.143-18.572 1.428-27.857-.714-9.286-4.285-20.715-3.571-31.429.714-10.714-1.429-16.428-14.286-23.571-12.857-7.143-26.428-14.286-28.571-17.143-2.143-2.857-10.715-11.429-18.572-8.572-7.857 2.858-12.143 17.858-15 17.858-2.857 0-24.285-3.572-29.285-3.572s-14.286 22.857-22.143 22.143c-7.857-.714-36.429 5-40 2.143-3.572-2.857-13.572-10.714-20-12.143-6.429-1.429-14.286 5.714-20.715 5.714-6.428 0-13.57-.714-32.857 0-19.285.715-24.285 1.429-30.714-5-6.429-6.428-18.571-13.571-15.714-21.428 2.857-7.857 14.285-18.572 12.857-25-1.429-6.429-12.857-30-18.572-30.715-5.714-.714-16.428-26.428-22.857-27.142-6.428-.715-60.714-30.715-88.571-10.715s-55 12.143-49.286 2.143c5.714-10 37.143-33.571 42.857-41.428 5.715-7.858-2.143-15 9.286-25 11.429-10 12.857-21.429 15-27.143 2.143-5.715-1.429-25.715 2.143-31.429 3.571-5.714 22.857-64.286 0-43.571C310.83 25.13 289.4 52.273 280.115 58.7c-9.285 6.429-21.428 29.286-32.857 40-11.428 10.715-37.857 27.143-42.857 32.858-5 5.714-14.285 21.428-23.571 18.571-9.286-2.857-11.429-9.286-14.286-14.286-2.857-5-6.428-12.857-12.143-15.714-5.714-2.857-17.857-5.714-20-12.143-2.143-6.428-7.143-26.428-32.857-18.571-25.714 7.857-20.733 11.31-17.857 16.428z"
  />
</svg>
